<svg width="32" height="32" viewBox="0 0 32 32" fill="none" xmlns="http://www.w3.org/2000/svg">
<path d="M12.6667 24.0055H8.87608C5.44675 24.0002 2.66675 21.3242 2.66675 18.0228C2.66675 14.7228 5.44675 12.0468 8.87608 12.0468C9.40008 9.6975 11.2681 7.78017 13.7761 7.01617C16.2827 6.2535 19.0507 6.75884 21.0347 8.3495C22.6467 9.63884 23.5414 11.4788 23.5414 13.3842" stroke="white" stroke-width="2" stroke-linecap="round" stroke-linejoin="round"/>
<path d="M23.7334 27.756L20.8374 29.2733C20.7515 29.318 20.6548 29.338 20.5582 29.331C20.4615 29.3239 20.3688 29.2902 20.2902 29.2335C20.2116 29.1768 20.1504 29.0993 20.1133 29.0098C20.0762 28.9203 20.0647 28.8223 20.0801 28.7266L20.6334 25.512L18.2907 23.236C18.2208 23.1684 18.1713 23.0825 18.1479 22.9881C18.1244 22.8937 18.128 22.7946 18.1582 22.7022C18.1883 22.6097 18.2439 22.5276 18.3185 22.4652C18.3931 22.4028 18.4837 22.3626 18.5801 22.3493L21.8174 21.88L23.2654 18.956C23.3087 18.8689 23.3755 18.7956 23.4581 18.7444C23.5408 18.6932 23.6361 18.666 23.7334 18.666C23.8307 18.666 23.926 18.6932 24.0087 18.7444C24.0914 18.7956 24.1581 18.8689 24.2014 18.956L25.6494 21.88L28.8867 22.3493C28.9828 22.3631 29.0731 22.4035 29.1473 22.466C29.2216 22.5284 29.2769 22.6104 29.307 22.7027C29.3371 22.7949 29.3408 22.8938 29.3177 22.988C29.2945 23.0823 29.2455 23.1682 29.1761 23.236L26.8334 25.512L27.3854 28.7253C27.402 28.8211 27.3913 28.9197 27.3547 29.0098C27.3181 29.0998 27.2569 29.1778 27.1782 29.2349C27.0995 29.292 27.0063 29.3258 26.9093 29.3326C26.8123 29.3394 26.7153 29.3189 26.6294 29.2733L23.7334 27.756Z" stroke="white" stroke-width="2" stroke-linecap="round" stroke-linejoin="round"/>
</svg>
