<svg width="16" height="16" viewBox="0 0 16 16" fill="none" xmlns="http://www.w3.org/2000/svg">
<path d="M5.59039 3.82589L8.16619 3.13571L7.8211 1.84781C7.77534 1.67702 7.66361 1.53141 7.51049 1.44301C7.35736 1.3546 7.17539 1.33064 7.00461 1.3764L5.7167 1.7215C5.54592 1.76726 5.40031 1.87899 5.3119 2.03211C5.22349 2.18524 5.19954 2.36721 5.2453 2.53799L5.59039 3.82589Z" stroke="white" stroke-linecap="round" stroke-linejoin="round"/>
<path d="M7.90756 2.17011C8.18812 3.21717 8.78826 4.151 9.62413 4.84152L9.6684 4.87797C10.5333 5.59226 11.154 6.55836 11.4443 7.64185L12.5139 11.6337C12.6054 11.9753 12.5575 12.3392 12.3807 12.6455C12.2039 12.9517 11.9126 13.1752 11.5711 13.2667L7.70736 14.302C7.36579 14.3935 7.00185 14.3456 6.6956 14.1688C6.38935 13.992 6.16589 13.7007 6.07437 13.3592L5.00458 9.36667C4.71436 8.28355 4.76881 7.13705 5.16075 6.08579L5.18087 6.03209C5.55963 5.01621 5.61237 3.90754 5.33175 2.86029" stroke="white" stroke-linecap="round" stroke-linejoin="round"/>
<path d="M5.35025 10.6565C5.57816 10.4767 5.75286 10.2383 5.85565 9.96686C5.94733 9.72386 6.09678 9.50683 6.29111 9.33451C6.48543 9.16219 6.71878 9.03977 6.97101 8.97782C7.22041 8.90536 7.48371 8.8947 7.73816 8.94677C7.99261 8.99884 8.23056 9.11207 8.43145 9.27668C8.63235 9.44128 8.8703 9.55451 9.12474 9.60658C9.37919 9.65865 9.64249 9.648 9.8919 9.57554C10.1441 9.51358 10.3775 9.39116 10.5718 9.21884C10.7661 9.04653 10.9156 8.8295 11.0073 8.58649C11.1097 8.3146 11.2843 8.07574 11.5123 7.89557" stroke="white" stroke-linecap="round" stroke-linejoin="round"/>
</svg>
