<svg width="32" height="31" viewBox="0 0 32 31" fill="none" xmlns="http://www.w3.org/2000/svg">
<line x1="4" y1="25.5858" x2="7.58579" y2="22" stroke="white" stroke-width="2" stroke-linecap="round"/>
<line x1="22" y1="7.58579" x2="26.5858" y2="3" stroke="white" stroke-width="2" stroke-linecap="round"/>
<path d="M13.333 6.6665H18.6663V3.99984C18.6663 3.64622 18.5259 3.30708 18.2758 3.05703C18.0258 2.80698 17.6866 2.6665 17.333 2.6665H14.6663C14.3127 2.6665 13.9736 2.80698 13.7235 3.05703C13.4735 3.30708 13.333 3.64622 13.333 3.99984V6.6665Z" fill="white"/>
<path d="M18.6663 4.6665C18.6663 6.8345 19.3423 8.94917 20.5997 10.7158L20.6663 10.8092C21.9674 12.6368 22.6665 14.8244 22.6663 17.0678V25.3332C22.6663 26.0404 22.3854 26.7187 21.8853 27.2188C21.3852 27.7189 20.7069 27.9998 19.9997 27.9998H11.9997C11.2924 27.9998 10.6142 27.7189 10.1141 27.2188C9.61396 26.7187 9.33301 26.0404 9.33301 25.3332V17.0665C9.33301 14.8238 10.0317 12.6372 11.333 10.8092L11.3997 10.7158C12.6572 8.94937 13.333 6.83489 13.333 4.6665" fill="white"/>
</svg>
