<svg width="21" height="20" viewBox="0 0 21 20" fill="none" xmlns="http://www.w3.org/2000/svg">
<g clip-path="url(#clip0_263_531)">
<path d="M15 7L13 1" stroke="#00E69C" stroke-linecap="round" stroke-linejoin="round"/>
<path d="M5 7L7 1" stroke="#00E69C" stroke-linecap="round" stroke-linejoin="round"/>
<path d="M8.49924 17H5.24324C4.52664 17 3.83372 16.7434 3.28987 16.2768C2.74602 15.8102 2.38716 15.1643 2.27824 14.456L1.02324 7.304C0.979407 7.01898 0.997728 6.72786 1.07694 6.45059C1.15616 6.17331 1.2944 5.91645 1.48218 5.6976C1.66997 5.47876 1.90286 5.30311 2.16488 5.1827C2.42691 5.06229 2.71187 4.99997 3.00024 5H16.9992C17.2876 4.99997 17.5726 5.06229 17.8346 5.1827C18.0966 5.30311 18.3295 5.47876 18.5173 5.6976C18.7051 5.91645 18.8433 6.17331 18.9225 6.45059C19.0017 6.72786 19.0201 7.01898 18.9762 7.304L18.8432 8.061" stroke="#00E69C" stroke-linecap="round" stroke-linejoin="round"/>
<path d="M11.5952 9.79401C11.2939 9.39421 10.8535 9.12196 10.3612 9.03105C9.86887 8.94015 9.36036 9.0372 8.93611 9.30303C8.51187 9.56885 8.20275 9.98413 8.06983 10.4668C7.93691 10.9495 7.98985 11.4645 8.21819 11.91" stroke="#00E69C" stroke-linecap="round" stroke-linejoin="round"/>
<path d="M15.8 17.817L13.628 18.955C13.5635 18.9886 13.491 19.0035 13.4186 18.9982C13.3461 18.993 13.2765 18.9677 13.2176 18.9251C13.1587 18.8826 13.1127 18.8245 13.0849 18.7574C13.0571 18.6903 13.0485 18.6167 13.06 18.545L13.475 16.134L11.718 14.427C11.6656 14.3763 11.6284 14.3119 11.6108 14.2411C11.5933 14.1703 11.5959 14.096 11.6186 14.0267C11.6412 13.9573 11.6829 13.8957 11.7388 13.8489C11.7948 13.8021 11.8627 13.772 11.935 13.762L14.363 13.41L15.449 11.217C15.4815 11.1517 15.5315 11.0967 15.5935 11.0583C15.6556 11.0199 15.727 10.9995 15.8 10.9995C15.8729 10.9995 15.9444 11.0199 16.0064 11.0583C16.0685 11.0967 16.1185 11.1517 16.151 11.217L17.237 13.41L19.665 13.762C19.737 13.7724 19.8047 13.8027 19.8604 13.8495C19.9162 13.8964 19.9576 13.9579 19.9802 14.027C20.0028 14.0962 20.0056 14.1704 19.9882 14.241C19.9708 14.3117 19.9341 14.3761 19.882 14.427L18.125 16.134L18.539 18.544C18.5514 18.6159 18.5434 18.6898 18.516 18.7573C18.4885 18.8249 18.4426 18.8834 18.3836 18.9262C18.3245 18.969 18.2547 18.9944 18.1819 18.9995C18.1092 19.0046 18.0364 18.9892 17.972 18.955L15.8 17.817Z" stroke="#00E69C" stroke-linecap="round" stroke-linejoin="round"/>
</g>
<defs>
<clipPath id="clip0_263_531">
<rect width="21" height="20" fill="white"/>
</clipPath>
</defs>
</svg>
