<svg width="32" height="32" viewBox="0 0 32 32" fill="none" xmlns="http://www.w3.org/2000/svg">
<path d="M26 16.7629L16 26.6669L5.99999 16.7629C5.3404 16.1211 4.82085 15.3496 4.47406 14.4971C4.12727 13.6446 3.96074 12.7295 3.98498 11.8095C4.00921 10.8895 4.22368 9.98442 4.61487 9.15135C5.00606 8.31829 5.56551 7.57524 6.25798 6.96901C6.95044 6.36278 7.76093 5.90649 8.63841 5.62888C9.51588 5.35127 10.4413 5.25835 11.3565 5.35597C12.2716 5.45359 13.1567 5.73965 13.9558 6.19611C14.755 6.65258 15.451 7.26957 16 8.00824C16.5514 7.27493 17.2482 6.66333 18.0468 6.21171C18.8454 5.76009 19.7287 5.47817 20.6412 5.3836C21.5538 5.28902 22.4761 5.38383 23.3504 5.66209C24.2246 5.94035 25.032 6.39607 25.7221 7.00072C26.4121 7.60537 26.9699 8.34595 27.3606 9.17609C27.7512 10.0062 27.9663 10.9081 27.9924 11.8252C28.0185 12.7423 27.855 13.6549 27.5122 14.5059C27.1693 15.3569 26.6545 16.128 26 16.7709" stroke="white" stroke-width="2" stroke-linecap="round" stroke-linejoin="round"/>
<path d="M16 8L11.6094 12.3907C11.3594 12.6407 11.219 12.9798 11.219 13.3333C11.219 13.6869 11.3594 14.026 11.6094 14.276L12.3334 15C13.2534 15.92 14.7467 15.92 15.6667 15L17 13.6667C17.7957 12.871 18.8748 12.424 20 12.424C21.1253 12.424 22.2044 12.871 23 13.6667L26 16.6667" stroke="white" stroke-width="2" stroke-linecap="round" stroke-linejoin="round"/>
<path d="M16.6667 20.6665L19.3334 23.3332" stroke="white" stroke-width="2" stroke-linecap="round" stroke-linejoin="round"/>
<path d="M20 17.3335L22.6667 20.0002" stroke="white" stroke-width="2" stroke-linecap="round" stroke-linejoin="round"/>
</svg>
