<svg width="13" height="12" viewBox="0 0 13 12" fill="none" xmlns="http://www.w3.org/2000/svg">
<path d="M11.5087 6.22227L6.50866 11.1743L1.50866 6.22227C1.17887 5.90135 0.919093 5.51561 0.745696 5.08936C0.5723 4.66311 0.489039 4.20557 0.501156 3.74556C0.513273 3.28555 0.620506 2.83303 0.816103 2.4165C1.0117 1.99996 1.29142 1.62844 1.63766 1.32532C1.98389 1.02221 2.38913 0.794064 2.82787 0.655259C3.26661 0.516453 3.72933 0.469994 4.18691 0.518806C4.64448 0.567617 5.087 0.710643 5.48658 0.938876C5.88616 1.16711 6.23416 1.47561 6.50866 1.84494C6.78435 1.47829 7.13276 1.17249 7.53206 0.946675C7.93137 0.720864 8.37299 0.579904 8.82929 0.532618C9.28558 0.485332 9.74672 0.532737 10.1838 0.671866C10.621 0.810995 11.0247 1.03885 11.3697 1.34118C11.7147 1.64351 11.9936 2.01379 12.1889 2.42887C12.3843 2.84394 12.4918 3.29486 12.5049 3.75341C12.5179 4.21196 12.4362 4.66827 12.2648 5.09377C12.0933 5.51928 11.8359 5.90482 11.5087 6.22627" stroke="white" stroke-linecap="round" stroke-linejoin="round"/>
</svg>
