<svg width="25" height="24" viewBox="0 0 25 24" fill="none" xmlns="http://www.w3.org/2000/svg">
<path d="M18.3333 20C19.0406 20 19.7189 20.2809 20.219 20.781C20.719 21.2811 21 21.9594 21 22.6667C21 21.9594 21.281 21.2811 21.781 20.781C22.2811 20.2809 22.9594 20 23.6667 20C22.9594 20 22.2811 19.719 21.781 19.2189C21.281 18.7188 21 18.0406 21 17.3333C21 18.0406 20.719 18.7188 20.219 19.2189C19.7189 19.719 19.0406 20 18.3333 20ZM18.3333 3.99999C19.0406 3.99999 19.7189 4.28095 20.219 4.78104C20.719 5.28114 21 5.95942 21 6.66666C21 5.95942 21.281 5.28114 21.781 4.78104C22.2811 4.28095 22.9594 3.99999 23.6667 3.99999C22.9594 3.99999 22.2811 3.71904 21.781 3.21895C21.281 2.71885 21 2.04057 21 1.33333C21 2.04057 20.719 2.71885 20.219 3.21895C19.7189 3.71904 19.0406 3.99999 18.3333 3.99999ZM9 20C9 17.8783 9.84286 15.8434 11.3431 14.3431C12.8434 12.8429 14.8783 12 17 12C14.8783 12 12.8434 11.1571 11.3431 9.65685C9.84286 8.15656 9 6.12173 9 3.99999C9 6.12173 8.15715 8.15656 6.65685 9.65685C5.15656 11.1571 3.12173 12 1 12C3.12173 12 5.15656 12.8429 6.65685 14.3431C8.15715 15.8434 9 17.8783 9 20Z" stroke="white" stroke-linecap="round" stroke-linejoin="round"/>
</svg>
