<svg width="16" height="16" viewBox="0 0 16 16" fill="none" xmlns="http://www.w3.org/2000/svg">
<path d="M3.33315 4.79982C3.33315 4.41083 3.48768 4.03778 3.76273 3.76273C4.03778 3.48768 4.41083 3.33315 4.79982 3.33315H5.46649C5.85375 3.33293 6.22521 3.17955 6.49982 2.90649L6.96649 2.43982C7.10278 2.30275 7.26483 2.19398 7.44331 2.11976C7.62179 2.04553 7.81319 2.00732 8.00649 2.00732C8.19979 2.00732 8.39118 2.04553 8.56966 2.11976C8.74814 2.19398 8.91019 2.30275 9.04649 2.43982L9.51315 2.90649C9.78782 3.17982 10.1598 3.33315 10.5465 3.33315H11.2132C11.6021 3.33315 11.9752 3.48768 12.2502 3.76273C12.5253 4.03778 12.6798 4.41083 12.6798 4.79982V5.46649C12.6798 5.85315 12.8332 6.22515 13.1065 6.49982L13.5732 6.96649C13.7102 7.10278 13.819 7.26483 13.8932 7.44331C13.9674 7.62179 14.0056 7.81319 14.0056 8.00649C14.0056 8.19979 13.9674 8.39118 13.8932 8.56966C13.819 8.74814 13.7102 8.91019 13.5732 9.04649L13.1065 9.51315C12.8334 9.78776 12.68 10.1592 12.6798 10.5465V11.2132C12.6798 11.6021 12.5253 11.9752 12.2502 12.2502C11.9752 12.5253 11.6021 12.6798 11.2132 12.6798H10.5465C10.1592 12.68 9.78776 12.8334 9.51315 13.1065L9.04649 13.5732C8.91019 13.7102 8.74814 13.819 8.56966 13.8932C8.39118 13.9674 8.19979 14.0056 8.00649 14.0056C7.81319 14.0056 7.62179 13.9674 7.44331 13.8932C7.26483 13.819 7.10278 13.7102 6.96649 13.5732L6.49982 13.1065C6.22521 12.8334 5.85375 12.68 5.46649 12.6798H4.79982C4.41083 12.6798 4.03778 12.5253 3.76273 12.2502C3.48768 11.9752 3.33315 11.6021 3.33315 11.2132V10.5465C3.33293 10.1592 3.17955 9.78776 2.90649 9.51315L2.43982 9.04649C2.30275 8.91019 2.19398 8.74814 2.11976 8.56966C2.04553 8.39118 2.00732 8.19979 2.00732 8.00649C2.00732 7.81319 2.04553 7.62179 2.11976 7.44331C2.19398 7.26483 2.30275 7.10278 2.43982 6.96649L2.90649 6.49982C3.17955 6.22521 3.33293 5.85375 3.33315 5.46649V4.79982Z" stroke="white" stroke-linecap="round" stroke-linejoin="round"/>
<path d="M6 7.99984L7.33333 9.33317L10 6.6665" stroke="white" stroke-linecap="round" stroke-linejoin="round"/>
</svg>
