<svg width="16" height="16" viewBox="0 0 16 16" fill="none" xmlns="http://www.w3.org/2000/svg">
<path d="M2 5.33333C2 6.21739 2.35119 7.06523 2.97631 7.69036C3.60143 8.31548 4.44928 8.66667 5.33333 8.66667C6.21739 8.66667 7.06523 8.31548 7.69036 7.69036C8.31548 7.06523 8.66667 6.21739 8.66667 5.33333C8.66667 4.44928 8.31548 3.60143 7.69036 2.97631C7.06523 2.35119 6.21739 2 5.33333 2C4.44928 2 3.60143 2.35119 2.97631 2.97631C2.35119 3.60143 2 4.44928 2 5.33333Z" stroke="white" stroke-linecap="round" stroke-linejoin="round"/>
<path d="M8.6665 11.3332C8.6665 12.0404 8.94746 12.7187 9.44755 13.2188C9.94765 13.7189 10.6259 13.9998 11.3332 13.9998C12.0404 13.9998 12.7187 13.7189 13.2188 13.2188C13.7189 12.7187 13.9998 12.0404 13.9998 11.3332C13.9998 10.6259 13.7189 9.94765 13.2188 9.44755C12.7187 8.94746 12.0404 8.6665 11.3332 8.6665C10.6259 8.6665 9.94765 8.94746 9.44755 9.44755C8.94746 9.94765 8.6665 10.6259 8.6665 11.3332Z" stroke="white" stroke-linecap="round" stroke-linejoin="round"/>
<path d="M3 3L7.66667 7.66667" stroke="white" stroke-linecap="round" stroke-linejoin="round"/>
<path d="M12.9998 9.6665L9.6665 12.9998" stroke="white" stroke-linecap="round" stroke-linejoin="round"/>
</svg>
