<svg width="26" height="26" viewBox="0 0 26 26" fill="none" xmlns="http://www.w3.org/2000/svg">
<g clip-path="url(#clip0_263_635)">
<path d="M1 25L3.2 19.9333C1.51688 17.544 0.763556 14.6227 1.08139 11.7174C1.39923 8.8122 2.76638 6.12281 4.92628 4.15399C7.08617 2.18516 9.89033 1.07224 12.8125 1.02409C15.7347 0.975939 18.574 1.99586 20.7976 3.89246C23.0212 5.78905 24.4762 8.43193 24.8896 11.3251C25.303 14.2183 24.6463 17.1629 23.0428 19.6063C21.4393 22.0497 18.9993 23.824 16.1805 24.5961C13.3618 25.3682 10.3582 25.0851 7.73333 23.8L1 25Z" stroke="black" stroke-width="2" stroke-linecap="round" stroke-linejoin="round"/>
<path d="M9 10.3335C9 10.5103 9.07024 10.6799 9.19526 10.8049C9.32029 10.9299 9.48986 11.0002 9.66667 11.0002C9.84348 11.0002 10.013 10.9299 10.1381 10.8049C10.2631 10.6799 10.3333 10.5103 10.3333 10.3335V9.00016C10.3333 8.82335 10.2631 8.65378 10.1381 8.52876C10.013 8.40373 9.84348 8.3335 9.66667 8.3335C9.48986 8.3335 9.32029 8.40373 9.19526 8.52876C9.07024 8.65378 9 8.82335 9 9.00016V10.3335ZM9 10.3335C9 12.1016 9.70238 13.7973 10.9526 15.0475C12.2029 16.2978 13.8986 17.0002 15.6667 17.0002M15.6667 17.0002H17C17.1768 17.0002 17.3464 16.9299 17.4714 16.8049C17.5964 16.6799 17.6667 16.5103 17.6667 16.3335C17.6667 16.1567 17.5964 15.9871 17.4714 15.8621C17.3464 15.7371 17.1768 15.6668 17 15.6668H15.6667C15.4899 15.6668 15.3203 15.7371 15.1953 15.8621C15.0702 15.9871 15 16.1567 15 16.3335C15 16.5103 15.0702 16.6799 15.1953 16.8049C15.3203 16.9299 15.4899 17.0002 15.6667 17.0002Z" stroke="black" stroke-width="2" stroke-linecap="round" stroke-linejoin="round"/>
</g>
<defs>
<clipPath id="clip0_263_635">
<rect width="26" height="26" fill="white"/>
</clipPath>
</defs>
</svg>
