<svg width="40" height="40" viewBox="0 0 40 40" fill="none" xmlns="http://www.w3.org/2000/svg">
<path d="M0.5 19.625C0.5 22.1365 1.00438 24.6235 1.98435 26.9438C2.96432 29.2642 4.40068 31.3725 6.21142 33.1484C8.02216 34.9243 10.1718 36.3331 12.5377 37.2942C14.9035 38.2553 17.4392 38.75 20 38.75C22.5608 38.75 25.0965 38.2553 27.4623 37.2942C29.8282 36.3331 31.9778 34.9243 33.7886 33.1484C35.5993 31.3725 37.0357 29.2642 38.0157 26.9438C38.9956 24.6235 39.5 22.1365 39.5 19.625C39.5 17.1135 38.9956 14.6265 38.0157 12.3062C37.0357 9.98583 35.5993 7.8775 33.7886 6.10158C31.9778 4.32566 29.8282 2.91693 27.4623 1.9558C25.0965 0.994683 22.5608 0.5 20 0.5C17.4392 0.5 14.9035 0.994683 12.5377 1.9558C10.1718 2.91693 8.02216 4.32566 6.21142 6.10158C4.40068 7.8775 2.96432 9.98583 1.98435 12.3062C1.00438 14.6265 0.5 17.1135 0.5 19.625Z" fill="#00D4DB" stroke="#00D4DB" stroke-linecap="round" stroke-linejoin="round"/>
<path d="M13.5 19.625L17.8333 23.875L26.5 15.375" fill="#00D4DB"/>
<path d="M13.5 19.625L17.8333 23.875L26.5 15.375" stroke="white" stroke-width="2" stroke-linecap="round" stroke-linejoin="round"/>
</svg>
