<svg width="31" height="37" viewBox="0 0 31 37" fill="none" xmlns="http://www.w3.org/2000/svg">
<path d="M4.49981 10.458H26.2329C26.7856 10.4579 27.3318 10.58 27.834 10.8158C28.3362 11.0516 28.7826 11.3956 29.1425 11.8241C29.5024 12.2527 29.7674 12.7557 29.9192 13.2987C30.071 13.8417 30.1061 14.4118 30.0221 14.97L27.6167 30.9343C27.4079 32.3217 26.7198 33.5868 25.677 34.5007C24.6343 35.4146 23.3057 35.9167 21.9319 35.9163H8.79889C7.42541 35.9163 6.09731 35.4139 5.05493 34.5001C4.01255 33.5862 3.32474 32.3214 3.11597 30.9343L0.710557 14.97C0.626546 14.4118 0.66166 13.8417 0.813492 13.2987C0.965324 12.7557 1.23028 12.2527 1.5902 11.8241C1.95012 11.3956 2.39649 11.0516 2.89871 10.8158C3.40092 10.58 3.9471 10.4579 4.49981 10.458Z" fill="#44D3A3" stroke="#44D3A3" stroke-width="1.33333" stroke-linecap="round" stroke-linejoin="round"/>
<path d="M9.61523 16.3332V6.5415C9.61523 4.98336 10.221 3.48903 11.2994 2.38725C12.3777 1.28548 13.8402 0.666504 15.3652 0.666504C16.8902 0.666504 18.3528 1.28548 19.4311 2.38725C20.5094 3.48903 21.1152 4.98336 21.1152 6.5415V16.3332" stroke="#44D3A3" stroke-width="1.33333" stroke-linecap="round" stroke-linejoin="round"/>
</svg>
