<svg width="19" height="24" viewBox="0 0 19 24" fill="none" xmlns="http://www.w3.org/2000/svg">
<path d="M14.666 22.833H2.99935C2.38051 22.833 1.78702 22.5872 1.34943 22.1496C0.911848 21.712 0.666016 21.1185 0.666016 20.4997V4.16634C0.666016 3.5475 0.911848 2.95401 1.34943 2.51643C1.78702 2.07884 2.38051 1.83301 2.99935 1.83301H11.166L16.9993 7.66634V20.4997C16.9993 21.1185 16.7535 21.712 16.3159 22.1496C15.8783 22.5872 15.2849 22.833 14.666 22.833Z" fill="#A2A2A2" stroke="#A2A2A2" stroke-width="1.33333" stroke-linecap="round" stroke-linejoin="round"/>
<path d="M11.166 0.666504V6.2665C11.166 6.63781 11.3135 6.9939 11.5761 7.25645C11.8386 7.519 12.1947 7.6665 12.566 7.6665H18.166" stroke="white" stroke-width="1.33333" stroke-linecap="round" stroke-linejoin="round"/>
<path d="M5.33398 18.1665H12.334" stroke="white" stroke-width="1.33333" stroke-linecap="round" stroke-linejoin="round"/>
<path d="M5.33398 13.4995H12.334" stroke="white" stroke-width="1.33333" stroke-linecap="round" stroke-linejoin="round"/>
</svg>
