<svg width="24" height="24" viewBox="0 0 24 24" fill="none" xmlns="http://www.w3.org/2000/svg">
<path d="M9.06445 2.54395C9.70652 -0.0964698 13.3675 -0.179277 14.1982 2.29785L14.2695 2.5459C14.3194 2.75151 14.4172 2.94274 14.5547 3.10352C14.6922 3.26413 14.8653 3.39066 15.0605 3.47168C15.2559 3.55271 15.4679 3.58645 15.6787 3.57031C15.8897 3.55409 16.0946 3.48793 16.2754 3.37793C18.6736 1.91792 21.4167 4.6611 19.957 7.05859C19.8744 7.1942 19.8167 7.34308 19.7861 7.49805L19.7646 7.6543C19.7483 7.86516 19.7824 8.07703 19.8633 8.27246C19.9442 8.46786 20.0699 8.64167 20.2305 8.7793C20.3909 8.91685 20.5818 9.01437 20.7871 9.06445H20.7881C23.5155 9.72599 23.5164 13.6067 20.7881 14.2695C20.5825 14.3194 20.3913 14.4171 20.2305 14.5547C20.0698 14.6922 19.9433 14.8653 19.8623 15.0605C19.7813 15.2559 19.7475 15.4679 19.7637 15.6787C19.7758 15.8371 19.8161 15.9921 19.8818 16.1357L19.9561 16.2754C21.416 18.6736 18.6729 21.4166 16.2754 19.957C16.0948 19.847 15.8905 19.781 15.6797 19.7646C15.4688 19.7483 15.257 19.7824 15.0615 19.8633C14.8661 19.9442 14.6923 20.0699 14.5547 20.2305C14.4171 20.391 14.3196 20.5818 14.2695 20.7871V20.7881C13.608 23.5155 9.72734 23.5164 9.06445 20.7881C9.01462 20.5824 8.91685 20.3913 8.7793 20.2305C8.64181 20.0698 8.46872 19.9433 8.27344 19.8623C8.07813 19.7813 7.8661 19.7475 7.65527 19.7637C7.49693 19.7758 7.3419 19.8161 7.19824 19.8818L7.05859 19.9561C4.66035 21.4161 1.9173 18.6729 3.37695 16.2754C3.48696 16.0948 3.553 15.8906 3.56934 15.6797C3.58567 15.4688 3.55159 15.257 3.4707 15.0615C3.38982 14.8661 3.26409 14.6923 3.10352 14.5547C2.94304 14.4171 2.75221 14.3196 2.54688 14.2695H2.5459C-0.0963248 13.6287 -0.179836 9.9667 2.29785 9.13574L2.5459 9.06445C2.75152 9.01462 2.94274 8.91683 3.10352 8.7793C3.26413 8.64181 3.39065 8.46872 3.47168 8.27344C3.5527 8.07813 3.58644 7.8661 3.57031 7.65527C3.55409 7.44429 3.48793 7.23936 3.37793 7.05859C1.91831 4.66109 4.65966 1.91841 7.05664 3.375V3.37598C7.23726 3.48691 7.44202 3.55353 7.65332 3.57031C7.86466 3.58708 8.07755 3.55275 8.27344 3.47168C8.46907 3.39061 8.64274 3.26455 8.78027 3.10352C8.91794 2.9423 9.01506 2.75011 9.06445 2.54395ZM11.667 7.66699C10.6061 7.66699 9.58901 8.08872 8.83887 8.83887C8.08872 9.58901 7.66699 10.6061 7.66699 11.667C7.667 12.7278 8.08873 13.745 8.83887 14.4951C9.58901 15.2452 10.6061 15.667 11.667 15.667C12.7278 15.667 13.745 15.2453 14.4951 14.4951C15.2453 13.745 15.667 12.7278 15.667 11.667C15.667 10.6061 15.2452 9.58901 14.4951 8.83887C13.745 8.08873 12.7278 7.667 11.667 7.66699Z" fill="#A2A2A2" stroke="#A2A2A2"/>
</svg>
