<svg width="24" height="19" viewBox="0 0 24 19" fill="none" xmlns="http://www.w3.org/2000/svg">
<path d="M0 4C0 2.93913 0.421427 1.92172 1.17157 1.17157C1.92172 0.421427 2.93913 0 4 0H20C21.0609 0 22.0783 0.421427 22.8284 1.17157C23.5786 1.92172 24 2.93913 24 4V14.6667C24 15.7275 23.5786 16.7449 22.8284 17.4951C22.0783 18.2452 21.0609 18.6667 20 18.6667H4C2.93913 18.6667 1.92172 18.2452 1.17157 17.4951C0.421427 16.7449 0 15.7275 0 14.6667V4Z" fill="#A2A2A2"/>
<path d="M0 6.3335L24 6.33349L0 6.3335Z" fill="#D9D9D9"/>
<path d="M0 6.3335L24 6.33349" stroke="white" stroke-width="1.33333" stroke-linejoin="round"/>
<path d="M5.33203 13.3335H5.34536H5.33203Z" fill="#D9D9D9"/>
<path d="M5.33203 13.3335H5.34536" stroke="white" stroke-width="1.33333" stroke-linecap="round" stroke-linejoin="round"/>
<path d="M10.668 13.3335H13.3346H10.668Z" fill="#D9D9D9"/>
<path d="M10.668 13.3335H13.3346" stroke="white" stroke-width="1.33333" stroke-linecap="round" stroke-linejoin="round"/>
</svg>
