<svg width="39" height="40" viewBox="0 0 39 40" fill="none" xmlns="http://www.w3.org/2000/svg">
<path d="M0.667969 13.4175C0.667969 12.8539 0.887462 12.3134 1.27816 11.9149C1.66886 11.5164 2.19877 11.2925 2.7513 11.2925H36.0846C36.6372 11.2925 37.1671 11.5164 37.5578 11.9149C37.9485 12.3134 38.168 12.8539 38.168 13.4175V17.6675C38.168 18.2311 37.9485 18.7716 37.5578 19.1701C37.1671 19.5686 36.6372 19.7925 36.0846 19.7925H2.7513C2.19877 19.7925 1.66886 19.5686 1.27816 19.1701C0.887462 18.7716 0.667969 18.2311 0.667969 17.6675V13.4175Z" fill="#FF9C45" stroke="#FF9C45" stroke-width="1.33333" stroke-linecap="round" stroke-linejoin="round"/>
<path d="M34.0026 19.7925V34.6675C34.0026 35.7947 33.5636 36.8757 32.7822 37.6727C32.0008 38.4697 30.941 38.9175 29.8359 38.9175H9.0026C7.89754 38.9175 6.83773 38.4697 6.05633 37.6727C5.27492 36.8757 4.83594 35.7947 4.83594 34.6675V19.7925" fill="#FF9C45"/>
<path d="M34.0026 19.7925V34.6675C34.0026 35.7947 33.5636 36.8757 32.7822 37.6727C32.0008 38.4697 30.941 38.9175 29.8359 38.9175H9.0026C7.89754 38.9175 6.83773 38.4697 6.05633 37.6727C5.27492 36.8757 4.83594 35.7947 4.83594 34.6675V19.7925" stroke="#FF9C45" stroke-width="1.33333" stroke-linecap="round" stroke-linejoin="round"/>
<path d="M10.0443 11.2924C8.66294 11.2924 7.33818 10.7327 6.36142 9.73644C5.38467 8.74015 4.83594 7.3889 4.83594 5.97993C4.83594 4.57097 5.38467 3.21972 6.36142 2.22343C7.33818 1.22714 8.66294 0.667433 10.0443 0.667433C12.054 0.631717 14.0235 1.62636 15.6958 3.52165C17.3681 5.41694 18.6657 8.12492 19.4193 11.2924C20.1729 8.12492 21.4704 5.41694 23.1427 3.52165C24.8151 1.62636 26.7845 0.631717 28.7943 0.667433C30.1756 0.667433 31.5004 1.22714 32.4771 2.22343C33.4539 3.21972 34.0026 4.57097 34.0026 5.97993C34.0026 7.3889 33.4539 8.74015 32.4771 9.73644C31.5004 10.7327 30.1756 11.2924 28.7943 11.2924" fill="#FF9C45"/>
<path d="M10.0443 11.2924C8.66294 11.2924 7.33818 10.7327 6.36142 9.73644C5.38467 8.74015 4.83594 7.3889 4.83594 5.97993C4.83594 4.57097 5.38467 3.21972 6.36142 2.22343C7.33818 1.22714 8.66294 0.667433 10.0443 0.667433C12.054 0.631717 14.0235 1.62636 15.6958 3.52165C17.3681 5.41694 18.6657 8.12492 19.4193 11.2924C20.1729 8.12492 21.4704 5.41694 23.1427 3.52165C24.8151 1.62636 26.7845 0.631717 28.7943 0.667433C30.1756 0.667433 31.5004 1.22714 32.4771 2.22343C33.4539 3.21972 34.0026 4.57097 34.0026 5.97993C34.0026 7.3889 33.4539 8.74015 32.4771 9.73644C31.5004 10.7327 30.1756 11.2924 28.7943 11.2924" stroke="#FF9C45" stroke-width="1.33333" stroke-linecap="round" stroke-linejoin="round"/>
</svg>
