<svg width="23" height="20" viewBox="0 0 23 20" fill="none" xmlns="http://www.w3.org/2000/svg">
<path d="M0.666016 1.83317C0.666016 1.52375 0.788932 1.22701 1.00772 1.00821C1.22652 0.78942 1.52326 0.666504 1.83268 0.666504H20.4993C20.8088 0.666504 21.1055 0.78942 21.3243 1.00821C21.5431 1.22701 21.666 1.52375 21.666 1.83317V13.4998C21.666 13.8093 21.5431 14.106 21.3243 14.3248C21.1055 14.5436 20.8088 14.6665 20.4993 14.6665H1.83268C1.52326 14.6665 1.22652 14.5436 1.00772 14.3248C0.788932 14.106 0.666016 13.8093 0.666016 13.4998V1.83317Z" fill="#A2A2A2" stroke="#A2A2A2" stroke-width="1.33333" stroke-linecap="round" stroke-linejoin="round"/>
<path d="M5.33398 19.3335H17.0007" stroke="#A2A2A2" stroke-width="1.33333" stroke-linecap="round" stroke-linejoin="round"/>
<path d="M7.66602 14.6665V19.3332" stroke="#A2A2A2" stroke-width="1.33333" stroke-linecap="round" stroke-linejoin="round"/>
<path d="M14.666 14.6665V19.3332" stroke="#A2A2A2" stroke-width="1.33333" stroke-linecap="round" stroke-linejoin="round"/>
</svg>
