<svg width="16" height="18" viewBox="0 0 16 18" fill="none" xmlns="http://www.w3.org/2000/svg">
<path d="M0.667969 4.33301H15.3346" stroke="#A2A2A2" stroke-width="1.33333" stroke-linecap="round" stroke-linejoin="round"/>
<path d="M1.58203 4.33301L2.4987 15.333C2.4987 15.8192 2.69185 16.2856 3.03567 16.6294C3.37949 16.9732 3.8458 17.1663 4.33203 17.1663H11.6654C12.1516 17.1663 12.6179 16.9732 12.9617 16.6294C13.3055 16.2856 13.4987 15.8192 13.4987 15.333L14.4154 4.33301" fill="#A2A2A2"/>
<path d="M1.58203 4.33301L2.4987 15.333C2.4987 15.8192 2.69185 16.2856 3.03567 16.6294C3.37949 16.9732 3.8458 17.1663 4.33203 17.1663H11.6654C12.1516 17.1663 12.6179 16.9732 12.9617 16.6294C13.3055 16.2856 13.4987 15.8192 13.4987 15.333L14.4154 4.33301" stroke="#A2A2A2" stroke-width="1.33333" stroke-linecap="round" stroke-linejoin="round"/>
<path d="M5.25 4.33317V1.58317C5.25 1.34006 5.34658 1.1069 5.51849 0.934989C5.69039 0.763081 5.92355 0.666504 6.16667 0.666504H9.83333C10.0764 0.666504 10.3096 0.763081 10.4815 0.934989C10.6534 1.1069 10.75 1.34006 10.75 1.58317V4.33317" fill="#A2A2A2"/>
<path d="M5.25 4.33317V1.58317C5.25 1.34006 5.34658 1.1069 5.51849 0.934989C5.69039 0.763081 5.92355 0.666504 6.16667 0.666504H9.83333C10.0764 0.666504 10.3096 0.763081 10.4815 0.934989C10.6534 1.1069 10.75 1.34006 10.75 1.58317V4.33317" stroke="#A2A2A2" stroke-width="1.33333" stroke-linecap="round" stroke-linejoin="round"/>
</svg>
