<svg width="13" height="18" viewBox="0 0 13 18" fill="none" xmlns="http://www.w3.org/2000/svg">
<path d="M2.49805 4.33317C2.49805 5.30563 2.88436 6.23826 3.57199 6.9259C4.25962 7.61353 5.19225 7.99984 6.16471 7.99984C7.13717 7.99984 8.06981 7.61353 8.75744 6.9259C9.44507 6.23826 9.83138 5.30563 9.83138 4.33317C9.83138 3.36071 9.44507 2.42808 8.75744 1.74045C8.06981 1.05281 7.13717 0.666504 6.16471 0.666504C5.19225 0.666504 4.25962 1.05281 3.57199 1.74045C2.88436 2.42808 2.49805 3.36071 2.49805 4.33317Z" stroke="white" stroke-width="1.33333" stroke-linecap="round" stroke-linejoin="round"/>
<path d="M0.666016 17.1665V15.3332C0.666016 14.3607 1.05232 13.4281 1.73996 12.7404C2.42759 12.0528 3.36022 11.6665 4.33268 11.6665H7.99935C8.97181 11.6665 9.90444 12.0528 10.5921 12.7404C11.2797 13.4281 11.666 14.3607 11.666 15.3332V17.1665" stroke="white" stroke-width="1.33333" stroke-linecap="round" stroke-linejoin="round"/>
</svg>
